<?xml version="1.0" standalone="no"?>
<!DOCTYPE svg PUBLIC "-//W3C//DTD SVG 20010904//EN"
 "http://www.w3.org/TR/2001/REC-SVG-20010904/DTD/svg10.dtd">
<svg version="1.0" xmlns="http://www.w3.org/2000/svg"
 width="3276.000000pt" height="3276.000000pt" viewBox="0 0 3276.000000 3276.000000"
 preserveAspectRatio="xMidYMid meet">
<metadata>
Created by potrace 1.11, written by Peter Selinger 2001-2013
</metadata>
<g transform="translate(0.000000,3276.000000) scale(0.100000,-0.100000)"
fill="#EC5765" stroke="none">
<path d="M8754 31856 c-6 -17 -251 -821 -454 -1491 -296 -977 -300 -990 -350
-1088 -11 -22 -20 -44 -20 -50 0 -7 -13 -28 -29 -47 -27 -32 -36 -35 -113 -47
-45 -7 -104 -12 -130 -13 -27 0 -48 -4 -48 -8 0 -5 88 -12 197 -15 257 -9
10271 -9 11091 0 348 3 632 9 632 13 0 4 -127 10 -282 14 -543 12 -838 29
-838 47 0 4 -30 10 -67 14 -205 20 -349 38 -353 45 -3 5 -52 14 -110 20 -58 6
-107 15 -110 19 -3 5 -58 14 -122 21 -65 7 -118 17 -118 22 0 4 -13 8 -29 8
-16 0 -31 4 -33 9 -1 5 -48 14 -102 20 -55 7 -104 15 -110 20 -6 5 -35 12 -64
16 -29 4 -76 16 -105 26 -28 10 -62 19 -74 19 -12 0 -25 5 -28 10 -3 6 -26 10
-50 10 -24 0 -46 4 -49 8 -3 5 -35 14 -71 22 -36 8 -68 17 -71 22 -3 4 -16 8
-29 8 -13 0 -26 4 -29 9 -3 4 -25 11 -48 15 -41 6 -118 29 -348 102 -58 19
-113 34 -123 34 -10 0 -52 11 -95 24 -42 13 -129 40 -192 59 -63 20 -167 51
-230 70 -63 20 -162 50 -220 67 -238 72 -306 92 -330 100 -14 5 -70 22 -125
38 -55 17 -147 45 -205 62 -58 17 -150 45 -205 62 -55 16 -111 34 -125 38 -14
5 -59 18 -100 30 -41 12 -86 25 -100 30 -14 4 -72 22 -130 40 -58 17 -163 49
-235 72 -71 22 -181 55 -242 74 -62 19 -164 49 -225 68 -62 19 -159 48 -215
65 -57 17 -149 45 -205 62 -57 17 -137 41 -178 54 -41 12 -109 33 -150 45
-102 29 -252 74 -385 115 -60 19 -164 50 -230 70 -280 85 -323 98 -375 115
-30 10 -89 28 -130 40 -41 12 -109 33 -150 45 -352 109 -338 104 -645 197
-241 72 -302 90 -325 98 -14 5 -59 18 -100 30 -41 12 -86 25 -100 30 -14 5
-59 18 -100 30 -41 12 -95 29 -120 37 -25 8 -74 23 -110 33 -36 10 -99 28
-140 39 -41 12 -104 30 -140 40 -56 17 -128 36 -315 82 -22 6 -58 14 -80 19
-22 5 -58 14 -80 20 -47 13 -97 25 -145 35 -19 4 -42 9 -50 12 -59 23 -182 48
-186 39z"/>
<path d="M27400 16710 l0 -12370 -11354 -2 c-6245 -2 -11357 -6 -11361 -10
-21 -21 32 -88 69 -88 14 0 26 -4 26 -10 0 -5 15 -10 34 -10 19 0 38 -4 41
-10 3 -5 19 -10 34 -10 23 0 32 -7 45 -34 8 -18 22 -39 31 -46 8 -7 15 -18 15
-24 0 -15 112 -126 127 -126 6 0 16 -7 23 -15 15 -18 150 -85 172 -85 9 0 20
-5 23 -10 3 -6 21 -10 40 -10 19 0 37 -4 40 -10 3 -5 26 -10 50 -10 24 0 47
-4 50 -10 4 -6 64 -10 149 -10 80 0 146 -4 152 -10 6 -6 1090 -11 3124 -14
2959 -4 3335 -8 3825 -35 408 -23 488 -29 494 -40 4 -6 71 -15 156 -22 439
-32 598 -47 605 -59 3 -5 52 -14 108 -20 56 -5 148 -15 204 -20 56 -6 105 -15
108 -20 3 -5 51 -14 105 -19 198 -20 290 -33 295 -41 3 -5 52 -14 110 -20 58
-6 107 -15 110 -20 3 -5 52 -14 110 -20 58 -6 107 -16 108 -21 2 -5 17 -9 33
-9 16 0 29 -4 29 -8 0 -5 48 -14 107 -21 59 -7 110 -16 113 -20 3 -5 57 -14
120 -20 63 -7 117 -16 118 -22 2 -5 17 -9 33 -9 16 0 29 -4 29 -8 0 -5 48 -14
108 -21 59 -7 108 -16 110 -22 2 -5 21 -9 43 -9 21 0 39 -4 39 -10 0 -5 13
-10 29 -10 16 0 31 -4 33 -9 2 -5 50 -15 108 -21 58 -6 107 -16 108 -21 2 -5
17 -9 33 -9 16 0 29 -4 29 -10 0 -5 14 -10 30 -10 17 0 30 -4 30 -10 0 -5 18
-10 40 -10 22 0 40 -4 40 -10 0 -5 14 -10 30 -10 17 0 30 -4 30 -10 0 -5 13
-10 29 -10 16 0 31 -4 33 -9 2 -6 51 -15 111 -22 59 -7 107 -16 107 -21 0 -4
14 -8 30 -8 17 0 30 -4 30 -10 0 -5 14 -10 30 -10 17 0 30 -4 30 -10 0 -5 14
-10 30 -10 17 0 30 -4 30 -10 0 -5 18 -10 40 -10 22 0 40 -4 40 -10 0 -5 14
-10 30 -10 17 0 30 -4 30 -10 0 -5 14 -10 30 -10 17 0 30 -4 30 -10 0 -5 14
-10 30 -10 17 0 30 -4 30 -10 0 -5 18 -10 40 -10 22 0 40 -4 40 -10 0 -5 14
-10 30 -10 17 0 30 -4 30 -10 0 -5 14 -10 30 -10 17 0 30 -4 30 -10 0 -5 18
-10 40 -10 22 0 40 -4 40 -10 0 -5 14 -10 30 -10 17 0 30 -4 30 -10 0 -5 14
-10 30 -10 17 0 30 -4 30 -10 0 -5 18 -10 40 -10 22 0 40 -4 40 -10 0 -5 14
-10 30 -10 17 0 30 -4 30 -10 0 -5 14 -10 30 -10 17 0 30 -4 30 -10 0 -5 18
-10 40 -10 22 0 40 -4 40 -10 0 -5 14 -10 30 -10 17 0 30 -4 30 -10 0 -5 14
-10 30 -10 17 0 30 -4 30 -10 0 -5 18 -10 40 -10 22 0 40 -4 40 -10 0 -5 14
-10 30 -10 17 0 30 -4 30 -10 0 -5 14 -10 30 -10 17 0 30 -4 30 -10 0 -5 18
-10 40 -10 22 0 40 -4 40 -10 0 -5 14 -10 30 -10 17 0 30 -4 30 -10 0 -5 14
-10 30 -10 17 0 30 -4 30 -10 0 -5 18 -10 40 -10 22 0 40 -4 40 -10 0 -5 14
-10 30 -10 17 0 30 -4 30 -10 0 -5 14 -10 30 -10 17 0 30 -4 30 -10 0 -5 14
-10 30 -10 17 0 30 -4 30 -10 0 -5 18 -10 40 -10 22 0 40 -4 40 -10 0 -5 14
-10 30 -10 17 0 30 -4 30 -10 0 -5 14 -10 30 -10 17 0 30 -4 30 -10 0 -5 14
-10 30 -10 17 0 30 -4 30 -10 0 -5 18 -10 40 -10 22 0 40 -4 40 -10 0 -5 14
-10 30 -10 17 0 30 -4 30 -10 0 -5 14 -10 30 -10 17 0 30 -4 30 -10 0 -5 14
-10 30 -10 17 0 30 -4 30 -10 0 -5 18 -10 40 -10 22 0 40 -4 40 -10 0 -5 14
-10 30 -10 17 0 30 -4 30 -10 0 -5 14 -10 30 -10 17 0 30 -4 30 -10 0 -5 14
-10 30 -10 17 0 30 -4 30 -10 0 -5 18 -10 40 -10 22 0 40 -4 40 -10 0 -5 14
-10 30 -10 17 0 30 -4 30 -10 0 -5 14 -10 30 -10 17 0 30 -4 30 -10 0 -5 18
-10 40 -10 22 0 40 -4 40 -10 0 -5 14 -10 30 -10 17 0 30 -4 30 -10 0 -5 14
-10 30 -10 17 0 30 -4 30 -10 0 -5 14 -10 30 -10 17 0 30 -4 30 -10 0 -5 18
-10 40 -10 22 0 40 -4 40 -10 0 -5 14 -10 30 -10 17 0 30 -4 30 -10 0 -5 14
-10 30 -10 17 0 30 -4 30 -10 0 -5 18 -10 40 -10 22 0 40 -4 40 -10 0 -5 14
-10 30 -10 17 0 30 -4 30 -10 0 -5 14 -10 30 -10 17 0 30 -4 30 -10 0 -5 18
-10 40 -10 22 0 40 -4 40 -10 0 -5 14 -10 30 -10 17 0 30 -4 30 -10 0 -5 14
-10 30 -10 17 0 30 -4 30 -10 0 -5 18 -10 40 -10 22 0 40 -4 40 -10 0 -5 14
-10 30 -10 17 0 30 -4 30 -10 0 -5 14 -10 30 -10 17 0 30 -4 30 -10 0 -5 18
-10 40 -10 22 0 40 -4 40 -10 0 -5 14 -10 30 -10 17 0 30 -4 30 -10 0 -5 14
-10 30 -10 17 0 30 -4 30 -10 0 -5 18 -10 40 -10 22 0 40 -4 40 -10 0 -5 14
-10 30 -10 17 0 30 -4 30 -10 0 -5 14 -10 30 -10 17 0 30 -4 30 -10 0 -5 18
-10 40 -10 22 0 40 -4 40 -10 0 -5 14 -10 30 -10 17 0 30 -4 30 -10 0 -5 14
-10 30 -10 17 0 30 -4 30 -10 0 -5 18 -10 40 -10 22 0 40 -4 40 -10 0 -5 14
-10 30 -10 17 0 30 -4 30 -10 0 -5 14 -10 30 -10 17 0 30 -4 30 -10 0 -5 14
-10 30 -10 17 0 30 -4 30 -10 0 -5 18 -10 40 -10 22 0 40 -4 40 -10 0 -5 14
-10 30 -10 17 0 30 -4 30 -10 0 -5 14 -10 30 -10 17 0 30 -4 30 -10 0 -5 18
-10 40 -10 22 0 40 -4 40 -10 0 -5 14 -10 30 -10 17 0 30 -4 30 -10 0 -5 14
-10 30 -10 17 0 30 -4 30 -10 0 -5 18 -10 40 -10 22 0 40 -4 40 -10 0 -5 14
-10 30 -10 17 0 30 -4 30 -10 0 -5 14 -10 30 -10 17 0 30 -4 30 -10 0 -5 18
-10 40 -10 22 0 40 -4 40 -10 0 -5 14 -10 30 -10 17 0 30 -4 30 -10 0 -5 14
-10 30 -10 17 0 30 -4 30 -10 0 -5 18 -10 40 -10 22 0 40 -4 40 -10 0 -5 14
-10 30 -10 17 0 30 -4 30 -10 0 -5 14 -10 30 -10 17 0 30 -4 30 -10 0 -5 18
-10 40 -10 22 0 40 -4 40 -10 0 -5 18 -10 40 -10 22 0 40 -4 40 -10 0 -5 18
-10 40 -10 22 0 40 -4 40 -10 0 -5 23 -10 50 -10 28 0 50 -4 50 -10 0 -6 33
-10 80 -10 47 0 80 -4 80 -10 0 -5 18 -10 40 -10 22 0 40 5 40 10 0 6 30 10
70 10 40 0 70 4 70 10 0 6 18 10 40 10 22 0 40 5 40 10 0 6 9 10 20 10 11 0
20 5 20 10 0 6 9 10 20 10 11 0 20 5 20 10 0 6 7 10 15 10 19 0 205 184 205
203 0 7 9 19 20 27 11 8 20 22 20 32 0 10 5 18 10 18 6 0 10 9 10 20 0 11 5
20 10 20 6 0 10 9 10 20 0 11 5 20 10 20 6 0 10 9 10 20 0 11 5 20 10 20 6 0
10 9 10 20 0 11 5 20 10 20 6 0 10 14 10 30 0 17 5 30 10 30 6 0 10 14 10 30
0 17 5 30 10 30 6 0 10 9 10 20 0 11 5 20 10 20 6 0 10 14 10 30 0 17 5 30 10
30 6 0 10 14 10 30 0 17 5 30 10 30 6 0 10 18 10 40 0 22 5 40 10 40 6 0 10
14 10 30 0 17 5 30 10 30 6 0 10 14 10 30 0 17 5 30 10 30 6 0 10 14 10 30 0
17 5 30 10 30 6 0 10 18 10 40 0 22 5 40 10 40 6 0 10 14 10 30 0 17 5 30 10
30 6 0 10 18 10 40 0 22 5 40 10 40 6 0 10 14 10 30 0 17 5 30 10 30 6 0 10
14 10 30 0 17 5 30 10 30 6 0 10 18 10 40 0 22 5 40 10 40 6 0 10 14 10 30 0
17 5 30 10 30 6 0 10 14 10 30 0 17 5 30 10 30 6 0 10 18 10 40 0 22 5 40 10
40 6 0 10 14 10 30 0 17 5 30 10 30 6 0 10 14 10 30 0 17 5 30 10 30 6 0 10
13 10 29 0 21 6 32 20 36 13 4 20 15 20 31 0 13 5 24 10 24 6 0 10 14 10 30 0
17 5 30 10 30 6 0 10 7 10 15 0 8 5 15 10 15 6 0 10 7 10 15 0 8 5 15 10 15 6
0 10 11 10 25 0 18 5 25 20 25 15 0 20 7 20 24 0 16 7 27 20 31 11 3 20 12 20
20 0 8 9 17 20 20 11 3 20 13 20 21 0 8 5 14 10 14 6 0 10 6 10 14 0 8 9 18
20 21 11 3 20 12 20 20 0 8 9 17 20 20 11 3 20 12 20 19 0 7 18 21 40 31 22
10 40 24 40 32 0 7 9 13 20 13 11 0 20 5 20 10 0 6 9 10 20 10 12 0 20 7 20
18 0 13 22 24 90 45 52 17 90 34 90 42 0 12 27 20 118 31 23 4 42 10 42 15 0
5 36 9 80 9 47 0 80 4 80 10 0 7 261 10 764 10 499 0 767 3 771 10 4 6 65 10
150 10 85 0 146 4 150 10 3 6 26 10 50 10 24 0 47 5 50 10 3 6 21 10 40 10 19
0 37 5 40 10 3 6 14 10 23 10 22 0 157 67 172 85 7 8 18 15 24 15 15 0 106 92
106 106 0 6 9 19 20 29 11 10 20 23 20 30 0 7 9 20 20 30 11 10 20 26 20 36 0
10 9 34 20 54 11 20 20 49 20 65 0 16 5 32 10 35 6 3 10 21 10 40 0 19 5 37
10 40 6 3 10 52 10 110 0 58 4 107 10 110 7 4 10 1260 10 3736 0 2479 3 3729
10 3729 6 0 10 100 10 280 0 180 4 280 10 280 6 0 10 67 10 180 0 113 4 180
10 180 6 0 10 53 10 140 0 87 4 140 10 140 6 0 10 14 10 30 0 17 5 30 10 30 6
0 10 47 10 120 0 73 4 120 10 120 6 0 10 47 10 120 0 73 4 120 10 120 6 0 10
40 10 100 0 60 4 100 10 100 6 0 10 18 10 40 0 22 5 40 10 40 6 0 10 37 10 90
0 53 4 90 10 90 6 0 10 37 10 90 0 53 4 90 10 90 6 0 10 14 10 30 0 17 5 30
10 30 6 0 10 40 10 100 0 60 4 100 10 100 6 0 10 33 10 80 0 47 4 80 10 80 6
0 10 14 10 30 0 17 5 30 10 30 6 0 10 33 10 80 0 47 4 80 10 80 6 0 10 18 10
40 0 22 5 40 10 40 6 0 10 30 10 70 0 40 4 70 10 70 6 0 10 18 10 40 0 22 5
40 10 40 6 0 10 14 10 30 0 17 5 30 10 30 6 0 10 30 10 70 0 40 4 70 10 70 6
0 10 18 10 40 0 22 5 40 10 40 6 0 10 33 10 80 0 47 4 80 10 80 6 0 10 14 10
30 0 17 5 30 10 30 6 0 10 14 10 30 0 17 5 30 10 30 6 0 10 33 10 80 0 47 4
80 10 80 6 0 10 14 10 30 0 17 5 30 10 30 6 0 10 14 10 30 0 17 5 30 10 30 6
0 10 14 10 30 0 17 5 30 10 30 6 0 10 33 10 80 0 47 4 80 10 80 6 0 10 14 10
30 0 17 5 30 10 30 6 0 10 18 10 40 0 22 5 40 10 40 6 0 10 14 10 30 0 17 5
30 10 30 6 0 10 14 10 30 0 17 5 30 10 30 6 0 10 18 10 40 0 22 5 40 10 40 6
0 10 14 10 30 0 17 5 30 10 30 6 0 10 30 10 70 0 40 4 70 10 70 6 0 10 18 10
40 0 22 5 40 10 40 6 0 10 14 10 30 0 17 5 30 10 30 6 0 10 14 10 30 0 17 5
30 10 30 6 0 10 14 10 30 0 17 5 30 10 30 6 0 10 18 10 40 0 22 5 40 10 40 6
0 10 14 10 30 0 17 5 30 10 30 6 0 10 14 10 30 0 17 5 30 10 30 6 0 10 14 10
30 0 17 5 30 10 30 6 0 10 18 10 40 0 22 5 40 10 40 6 0 10 14 10 30 0 17 5
30 10 30 6 0 10 14 10 30 0 17 5 30 10 30 6 0 10 14 10 30 0 17 5 30 10 30 6
0 10 18 10 40 0 22 5 40 10 40 6 0 10 14 10 30 0 17 5 30 10 30 6 0 10 14 10
30 0 17 5 30 10 30 6 0 10 14 10 30 0 17 5 30 10 30 6 0 10 14 10 30 0 17 5
30 10 30 6 0 10 18 10 40 0 22 5 40 10 40 6 0 10 14 10 30 0 17 5 30 10 30 6
0 10 14 10 30 0 17 5 30 10 30 6 0 10 18 10 40 0 22 5 40 10 40 6 0 10 14 10
30 0 17 5 30 10 30 6 0 10 14 10 30 0 17 5 30 10 30 6 0 10 18 10 40 0 22 5
40 10 40 6 0 10 14 10 30 0 17 5 30 10 30 6 0 10 14 10 30 0 17 5 30 10 30 6
0 10 18 10 40 0 22 5 40 10 40 6 0 10 14 10 30 0 17 5 30 10 30 6 0 10 14 10
30 0 17 5 30 10 30 6 0 10 18 10 40 0 22 5 40 10 40 6 0 10 14 10 30 0 17 5
30 10 30 6 0 10 18 10 40 0 22 5 40 10 40 6 0 10 14 10 30 0 17 5 30 10 30 6
0 10 14 10 30 0 17 5 30 10 30 6 0 10 18 10 40 0 22 5 40 10 40 6 0 10 14 10
30 0 17 5 30 10 30 6 0 10 14 10 30 0 17 5 30 10 30 6 0 10 14 10 30 0 17 5
30 10 30 6 0 10 18 10 40 0 22 5 40 10 40 6 0 10 14 10 30 0 17 5 30 10 30 6
0 10 14 10 30 0 17 5 30 10 30 6 0 10 14 10 30 0 17 5 30 10 30 6 0 10 14 10
30 0 17 5 30 10 30 6 0 10 18 10 40 0 22 5 40 10 40 6 0 10 14 10 30 0 17 5
30 10 30 6 0 10 14 10 30 0 17 5 30 10 30 6 0 10 14 10 30 0 17 5 30 10 30 6
0 10 18 10 40 0 22 5 40 10 40 6 0 10 14 10 30 0 17 5 30 10 30 6 0 10 14 10
30 0 17 5 30 10 30 6 0 10 14 10 30 0 17 5 30 10 30 6 0 10 18 10 40 0 22 5
40 10 40 6 0 10 14 10 30 0 17 5 30 10 30 6 0 10 14 10 30 0 17 5 30 10 30 6
0 10 18 10 40 0 22 5 40 10 40 6 0 10 14 10 30 0 17 5 30 10 30 6 0 10 14 10
30 0 17 5 30 10 30 6 0 10 18 10 40 0 22 5 40 10 40 6 0 10 14 10 30 0 17 5
30 10 30 6 0 10 14 10 30 0 17 5 30 10 30 6 0 10 18 10 40 0 22 5 40 10 40 6
0 10 14 10 30 0 17 5 30 10 30 6 0 10 14 10 30 0 17 5 30 10 30 6 0 10 18 10
40 0 22 5 40 10 40 6 0 10 14 10 30 0 17 5 30 10 30 6 0 10 14 10 30 0 17 5
30 10 30 6 0 10 18 10 40 0 22 5 40 10 40 6 0 10 14 10 30 0 17 5 30 10 30 6
0 10 14 10 30 0 17 5 30 10 30 6 0 10 18 10 40 0 22 5 40 10 40 6 0 10 14 10
30 0 17 5 30 10 30 6 0 10 14 10 30 0 17 5 30 10 30 6 0 10 18 10 40 0 22 5
40 10 40 6 0 10 14 10 30 0 17 5 30 10 30 6 0 10 14 10 30 0 17 5 30 10 30 6
0 10 14 10 30 0 17 5 30 10 30 6 0 10 18 10 40 0 22 5 40 10 40 6 0 10 14 10
30 0 17 5 30 10 30 6 0 10 14 10 30 0 17 5 30 10 30 6 0 10 14 10 30 0 17 5
30 10 30 6 0 10 18 10 40 0 22 5 40 10 40 6 0 10 14 10 30 0 17 5 30 10 30 6
0 10 14 10 30 0 17 5 30 10 30 6 0 10 14 10 30 0 17 5 30 10 30 6 0 10 18 10
40 0 22 5 40 10 40 6 0 10 14 10 30 0 17 5 30 10 30 6 0 10 14 10 30 0 17 5
30 10 30 6 0 10 18 10 40 0 22 5 40 10 40 6 0 10 14 10 30 0 17 5 30 10 30 6
0 10 14 10 30 0 17 5 30 10 30 6 0 10 14 10 30 0 17 5 30 10 30 6 0 10 18 10
40 0 22 5 40 10 40 6 0 10 14 10 30 0 17 5 30 10 30 6 0 10 14 10 30 0 17 5
30 10 30 6 0 10 18 10 40 0 22 5 40 10 40 6 0 10 14 10 30 0 17 5 30 10 30 6
0 10 14 10 30 0 17 5 30 10 30 6 0 10 18 10 40 0 22 5 40 10 40 6 0 10 14 10
30 0 17 5 30 10 30 6 0 10 14 10 30 0 17 5 30 10 30 6 0 10 14 10 30 0 17 5
30 10 30 6 0 10 18 10 40 0 22 5 40 10 40 6 0 10 14 10 30 0 17 5 30 10 30 6
0 10 18 10 40 0 22 5 40 10 40 6 0 10 14 10 30 0 17 5 30 10 30 6 0 10 14 10
30 0 17 5 30 10 30 6 0 10 18 10 40 0 22 5 40 10 40 6 0 10 14 10 30 0 17 5
30 10 30 6 0 10 18 10 40 0 22 5 40 10 40 6 0 10 23 10 50 0 28 5 50 10 50 6
0 10 23 10 50 0 28 5 50 10 50 6 0 10 53 10 140 0 87 -4 140 -10 140 -5 0 -10
18 -10 40 0 22 -4 40 -10 40 -5 0 -10 14 -10 30 0 17 -4 30 -10 30 -5 0 -10 9
-10 20 0 11 -4 20 -10 20 -5 0 -10 9 -10 20 0 11 -4 20 -10 20 -5 0 -10 7 -10
15 0 9 -36 52 -81 96 -70 69 -81 85 -81 115 0 19 -4 34 -9 34 -5 0 -9 8 -9 19
0 35 -47 67 -157 104 -59 20 -121 41 -138 46 -36 13 -192 60 -295 91 -41 12
-100 30 -130 40 -30 10 -89 28 -130 40 -41 12 -86 25 -100 30 -14 5 -59 18
-100 30 -41 12 -86 25 -100 30 -14 5 -59 18 -100 30 -41 12 -102 30 -135 41
-33 10 -107 32 -165 50 -58 17 -160 48 -228 70 -67 21 -128 39 -135 39 -6 0
-24 6 -38 14 -15 7 -58 24 -95 36 -38 12 -73 26 -79 31 -5 5 -16 9 -25 9 -20
0 -77 27 -85 41 -4 5 -15 9 -26 9 -12 0 -19 7 -19 20 0 16 -7 20 -30 20 -23 0
-30 4 -30 20 0 13 -7 20 -20 20 -13 0 -20 7 -20 20 0 13 -7 20 -20 20 -13 0
-20 7 -20 20 0 11 -4 20 -10 20 -5 0 -10 8 -10 18 0 10 -9 24 -20 32 -11 8
-20 22 -20 32 0 10 -4 18 -10 18 -5 0 -10 9 -10 20 0 13 -7 20 -20 20 -13 0
-20 7 -20 20 0 11 -4 20 -10 20 -5 0 -10 14 -10 30 0 17 -4 30 -10 30 -5 0
-10 13 -10 28 0 16 -8 34 -20 42 -12 8 -20 26 -20 42 0 15 -4 28 -10 28 -5 0
-10 23 -10 50 0 28 -4 50 -10 50 -6 0 -10 33 -10 80 0 47 -4 80 -10 80 -7 0
-10 205 -10 595 0 390 -3 595 -10 595 -6 0 -10 53 -10 140 0 87 -4 140 -10
140 -5 0 -10 23 -10 50 0 28 -4 50 -10 50 -5 0 -10 18 -10 40 0 22 -4 40 -10
40 -5 0 -10 14 -10 30 0 17 -4 30 -10 30 -5 0 -10 9 -10 20 0 11 -4 20 -10 20
-5 0 -10 9 -10 20 0 11 -4 20 -10 20 -5 0 -10 7 -10 15 0 19 -164 185 -183
185 -7 0 -19 9 -27 20 -8 11 -20 20 -26 20 -6 0 -14 10 -17 23 -17 73 -57 200
-67 213 -7 7 -25 14 -41 14 l-29 0 0 -12370z"/>
<path d="M14265 24099 c-318 -9 -662 -24 -1015 -44 -1082 -64 -1781 -141
-2632 -292 l-268 -47 0 -7498 0 -7498 1715 0 1715 0 0 2482 0 2481 48 63 47
64 695 0 c382 0 808 5 945 10 2012 80 3530 483 4645 1234 991 668 1580 1692
1750 3046 40 320 45 425 45 900 -1 499 -9 631 -60 988 -123 849 -409 1551
-864 2120 -244 306 -518 554 -866 787 -215 143 -370 232 -610 350 -1299 640
-3023 918 -5290 854z m2376 -3035 c616 -115 1114 -370 1406 -718 240 -286 360
-575 414 -1001 17 -129 17 -538 1 -680 -79 -678 -361 -1148 -858 -1428 -365
-206 -910 -361 -1534 -437 -435 -53 -946 -72 -1752 -68 l-537 3 1372 2172
c899 1424 1378 2172 1388 2173 9 0 54 -7 100 -16z"/>
<path d="M4658 19456 c-5 -126 -8 -298 -8 -383 0 -84 -4 -153 -9 -153 -4 0
-11 -107 -14 -237 -5 -224 -17 -352 -37 -398 -5 -11 -18 -68 -29 -126 -12 -59
-27 -128 -35 -155 -8 -27 -23 -80 -34 -119 -11 -38 -23 -86 -27 -105 -3 -19
-17 -69 -30 -110 -14 -41 -38 -127 -54 -190 -45 -178 -17 -83 -512 -1715 -39
-126 -99 -324 -134 -440 -75 -247 -204 -674 -455 -1500 -100 -330 -254 -836
-342 -1125 -87 -289 -204 -673 -259 -855 -55 -181 -129 -424 -164 -540 -35
-115 -112 -367 -170 -560 -58 -192 -135 -444 -170 -560 -35 -115 -112 -367
-170 -560 -58 -192 -135 -447 -171 -565 -175 -575 -205 -673 -235 -772 -32
-106 -32 -108 -15 -151 12 -32 26 -49 54 -63 106 -57 120 -64 137 -64 8 0 15
-4 15 -10 0 -5 9 -10 20 -10 11 0 20 -4 20 -9 0 -5 14 -14 30 -21 17 -7 30
-19 30 -26 0 -8 5 -14 10 -14 6 0 10 -13 10 -28 0 -16 8 -34 20 -42 11 -8 20
-21 20 -30 0 -9 9 -22 20 -30 11 -8 20 -20 20 -27 0 -16 85 -103 101 -103 6 0
24 -13 39 -30 15 -16 35 -30 44 -30 9 0 16 -4 16 -10 0 -5 8 -10 18 -10 10 0
24 -9 32 -20 8 -11 22 -20 32 -20 10 0 18 -4 18 -10 0 -5 14 -10 30 -10 17 0
30 -4 30 -10 0 -5 9 -10 20 -10 11 0 20 -4 20 -10 0 -5 9 -10 20 -10 11 0 20
-4 20 -10 0 -5 14 -10 30 -10 17 0 30 -4 30 -10 0 -5 14 -10 30 -10 17 0 30
-4 30 -10 0 -5 14 -10 30 -10 17 0 30 -4 30 -10 0 -5 14 -10 30 -10 17 0 30
-4 30 -10 0 -5 14 -10 30 -10 17 0 30 -4 30 -10 0 -5 14 -10 30 -10 17 0 30
-4 30 -10 0 -5 18 -10 40 -10 22 0 40 -4 40 -10 0 -5 14 -10 30 -10 17 0 30
-4 30 -10 0 -5 14 -10 30 -10 17 0 30 -4 30 -10 0 -5 18 -10 40 -10 22 0 40
-4 40 -10 0 -5 14 -10 30 -10 17 0 30 -4 30 -10 0 -5 14 -10 30 -10 17 0 30
-4 30 -10 0 -5 14 -10 30 -10 17 0 30 -4 30 -10 0 -5 18 -10 40 -10 22 0 40
-4 40 -10 0 -5 14 -10 30 -10 17 0 30 -4 30 -10 0 -5 14 -10 30 -10 17 0 30
-4 30 -10 0 -5 14 -10 30 -10 17 0 30 -4 30 -10 0 -5 14 -10 30 -10 17 0 30
-4 30 -10 0 -5 14 -10 30 -10 17 0 30 -4 30 -10 0 -5 18 -10 40 -10 22 0 40
-4 40 -10 0 -5 14 -10 30 -10 17 0 30 -4 30 -10 0 -5 14 -10 30 -10 17 0 30
-4 30 -10 0 -5 14 -10 30 -10 17 0 30 -4 30 -10 0 -5 14 -10 30 -10 17 0 30
-4 30 -10 0 -5 14 -10 30 -10 17 0 30 -4 30 -10 0 -5 16 -10 35 -10 28 0 35
-4 35 -20 0 -15 7 -20 25 -20 14 0 25 -4 25 -10 0 -5 14 -10 30 -10 17 0 30
-4 30 -10 0 -5 7 -10 15 -10 8 0 15 -4 15 -10 0 -5 7 -10 15 -10 8 0 15 -4 15
-10 0 -5 11 -10 25 -10 18 0 25 -5 25 -20 0 -16 7 -20 30 -20 23 0 30 -4 30
-20 0 -11 6 -20 14 -20 8 0 18 -9 21 -20 4 -13 15 -20 30 -20 15 0 26 -7 30
-20 3 -11 12 -20 20 -20 8 0 17 -9 20 -20 3 -11 12 -20 19 -20 7 0 23 -22 36
-50 13 -27 29 -50 37 -50 7 0 13 -9 13 -19 0 -11 5 -21 11 -23 6 -2 13 -34 16
-71 3 -37 10 -67 14 -67 5 0 9 -24 10 -52 0 -29 4 -75 8 -103 6 -45 7 -39 14
59 8 131 7 12814 -2 13171 l-6 250 -7 -229z"/>
</g>
</svg>
